<?xml version="1.0" standalone="no"?>
<!DOCTYPE svg PUBLIC "-//W3C//DTD SVG 1.1//EN" "http://www.w3.org/Graphics/SVG/1.1/DTD/svg11.dtd" >
<svg>
<metadata>
Created by FontForge 20090914 at Wed Apr  3 00:24:52 2013
 By www-data
Copyright (c) 2009, Matt McInerney &#60;matt@pixelspread.com&#62;
</metadata>
<defs>
<font id="Orbitron-Black" horiz-adv-x="828" >
  <font-face 
    font-family="Orbitron"
    font-weight="900"
    font-stretch="normal"
    units-per-em="1000"
    panose-1="2 0 0 0 0 0 0 0 0 0"
    ascent="750"
    descent="-250"
    x-height="578"
    cap-height="720"
    bbox="-187 -230 1283 973"
    underline-thickness="50"
    underline-position="-50"
    unicode-range="U+0020-U+E00C"
  />
<missing-glyph horiz-adv-x="0" 
 />
    <glyph glyph-name=".notdef" horiz-adv-x="0" 
 />
    <glyph glyph-name="space" unicode=" " horiz-adv-x="322" 
 />
    <glyph glyph-name="exclam" unicode="!" horiz-adv-x="220" 
d="M211 0h-153v153h153v-153zM58 201v519h153v-519h-153z" />
    <glyph glyph-name="quotedbl" unicode="&#x22;" horiz-adv-x="396" 
d="M188 706v-201h-152v201h152zM369 706v-201h-152v201h152z" />
    <glyph glyph-name="numbersign" unicode="#" horiz-adv-x="797" 
d="M750 570v-153h-115l-34 -106h121v-153h-171l-22 -79c-10 -36.667 -17.667 -63 -23 -79h-155l48 158h-140l-23.5 -83l-20.5 -75h-155l47 158h-75v153h121l34 106h-127v153h176c8.66699 24 24.667 74 48 150h158l-51 -150h138l48 150h157l-51 -150h67zM309 311h136l34 106
h-136z" />
    <glyph glyph-name="dollar" unicode="$" horiz-adv-x="788" 
d="M740 575v-66h-153v58h-123v-134h131c40 0 74.167 -14.333 102.5 -43s42.5 -63 42.5 -103v-142c0 -39.333 -14.167 -73.333 -42.5 -102s-62.5 -43 -102.5 -43h-131v-98h-154v98h-131c-40 -0 -74.167 14.333 -102.5 43s-42.5 62.667 -42.5 102v66h153v-58h123v127h-131
c-40 0 -74.167 14.167 -102.5 42.5s-42.5 62.5 -42.5 102.5v150c0 40 14.167 74.167 42.5 102.5s62.5 42.5 102.5 42.5h131v98h154v-98h131c40 0 74.167 -14.167 102.5 -42.5s42.5 -62.5 42.5 -102.5zM310 433v134h-123v-134h123zM464 280v-127h123v127h-123z" />
    <glyph glyph-name="percent" unicode="%" horiz-adv-x="966" 
d="M790 719h51v-156l-656 -563h-51v157zM184 712h81c40 0 72.667 -12.5 98 -37.5s38 -57.5 38 -97.5v-72c0 -40 -12.667 -72.667 -38 -98s-58 -38 -98 -38h-81c-40 0 -72.667 12.667 -98 38s-38 58 -38 98v72c0 40 12.667 72.5 38 97.5s58 37.5 98 37.5zM692 352h81
c40 0 72.667 -12.5 98 -37.5s38 -57.5 38 -97.5v-72c0 -40 -12.667 -72.667 -38 -98s-58 -38 -98 -38h-81c-39.333 0 -71.666 12.667 -96.999 38s-38 58 -38 98v72c0 40 12.667 72.5 38 97.5s57.666 37.5 96.999 37.5zM682 227v-93h102v93h-102zM173 587v-92h102v92h-102z
" />
    <glyph glyph-name="ampersand" unicode="&#x26;" horiz-adv-x="938" 
d="M759 208l115 -68v-158l-140 80c-30 -41.333 -70 -62 -120 -62h-416c-40 -0 -74.167 14.333 -102.5 43s-42.5 62.667 -42.5 102v185c0 14.667 3.66699 30 11 46s18 28.667 32 38c-4.66699 11.333 -7 29 -7 53v107c0 40 14.333 74.167 43 102.5s62.667 42.5 102 42.5h353
c35.333 0 66.833 -11.333 94.5 -34s44.5 -51 50.5 -85v-88h-153v53h-337v-108l364 -183v95h153v-161zM432 205l-226 114.001v-166h330c-10 5.33301 -26.667 13.666 -50 24.999s-41.333 20.333 -54 27z" />
    <glyph glyph-name="quotesingle" unicode="'" horiz-adv-x="251" 
d="M212 706v-202h-153v202h153z" />
    <glyph glyph-name="parenleft" unicode="(" horiz-adv-x="294" 
d="M263 567h-58v-414h58v-153h-66c-40 -0 -74.167 14.333 -102.5 43s-42.5 62.667 -42.5 102v430c0 40 14.167 74.167 42.5 102.5s62.5 42.5 102.5 42.5h66v-153z" />
    <glyph glyph-name="parenright" unicode=")" horiz-adv-x="297" 
d="M56 0v153h58v414h-58v153h67c39.333 0 73.333 -14.167 102 -42.5s43 -62.5 43 -102.5v-430c0 -39.333 -14.333 -73.333 -43 -102s-62.667 -43 -102 -43h-67z" />
    <glyph glyph-name="asterisk" unicode="*" horiz-adv-x="516" 
d="M445 627l46.999 -148l-110 -35l69 -93l-123 -90l-71 93l-66 -93l-125 90l69 93l-110 35l47 148l109 -37v116h154v-116c6.66699 2 43.334 14.333 110.001 37z" />
    <glyph glyph-name="plus" unicode="+" horiz-adv-x="455" 
d="M147 503h153v-131h134v-153h-134v-133h-153v133h-130v153h130v131z" />
    <glyph glyph-name="comma" unicode="," horiz-adv-x="243" 
d="M54 142h153v-126c0 -36 -14.5 -68 -43.5 -96s-65.5 -45.667 -109.5 -53v275z" />
    <glyph glyph-name="hyphen" unicode="-" horiz-adv-x="517" 
d="M476 372v-153h-417v153h417z" />
    <glyph glyph-name="period" unicode="." horiz-adv-x="233" 
d="M207 153v-153h-153v153h153z" />
    <glyph glyph-name="slash" unicode="/" horiz-adv-x="521" 
d="M6 155l461 565h55v-154l-461 -566h-55v155z" />
    <glyph glyph-name="zero" unicode="0" horiz-adv-x="834" 
d="M203 720h415c40 0 74.333 -14.833 103 -44.5s43 -64.5 43 -104.5v-416c0 -40 -14.5 -75.833 -43.5 -107.5s-63.167 -47.5 -102.5 -47.5h-415c-39.333 -0 -73.5 15.833 -102.5 47.5s-43.5 67.5 -43.5 107.5v416c0 40 14.333 74.833 43 104.5s63 44.5 103 44.5zM292 163
h319v268zM529 563h-319v-268z" />
    <glyph glyph-name="one" unicode="1" horiz-adv-x="391" 
d="M1 446l230 274h159v-720h-153v487l-2 -2h1l-32 -39h-203z" />
    <glyph glyph-name="two" unicode="2" horiz-adv-x="830" 
d="M203 720h415c40 0 74.333 -14.167 103 -42.5s43 -62.5 43 -102.5v-159c0 -40 -14.333 -74.333 -43 -103s-63 -43 -103 -43h-408v-117h554v-153h-707v279c0 40 14.333 74.167 43 102.5s63 42.5 103 42.5h408v143h-401v-58h-153v66c0 40 14.333 74.167 43 102.5
s63 42.5 103 42.5z" />
    <glyph glyph-name="three" unicode="3" horiz-adv-x="826" 
d="M733 575v-144c0 -16.667 -2 -32 -6 -46c22 -26.667 33 -57 33 -91v-149c0 -39.333 -14.167 -73.333 -42.5 -102s-62.5 -43 -102.5 -43h-416c-40 -0 -74.333 14.333 -103 43s-43 62.667 -43 102v56h153v-48h401v133h-436v153h409v128h-374v-56h-153v64
c0 40 14.333 74.167 43 102.5s63 42.5 103 42.5h389c40 0 74.167 -14.167 102.5 -42.5s42.5 -62.5 42.5 -102.5z" />
    <glyph glyph-name="four" unicode="4" horiz-adv-x="730" 
d="M590 333h96v-154h-96v-179h-153v179h-431v137l447 404h137v-387zM437 481l-182 -148h182v148z" />
    <glyph glyph-name="five" unicode="5" horiz-adv-x="830" 
d="M764 567h-554v-125h408c40 0 74.333 -14.167 103 -42.5s43 -62.5 43 -102.5v-152c0 -39.333 -14.333 -73.333 -43 -102s-63 -43 -103 -43h-415c-40 -0 -74.333 14.333 -103 43s-43 62.667 -43 102v56h153v-48h401v135h-554v432h707v-153z" />
    <glyph glyph-name="six" unicode="6" horiz-adv-x="820" 
d="M655 567h-445v-125h408c40 0 74.333 -14.167 103 -42.5s43 -62.5 43 -102.5v-152c0 -39.333 -14.333 -73.333 -43 -102s-63 -43 -103 -43h-415c-40 -0 -74.333 14.333 -103 43s-43 62.667 -43 102v430c0 40 14.333 74.167 43 102.5s63 42.5 103 42.5h452v-153zM210 288
v-135h401v135h-401z" />
    <glyph glyph-name="seven" unicode="7" horiz-adv-x="660" 
d="M3 721h453c40 0 74.167 -14.167 102.5 -42.5s42.5 -62.5 42.5 -102.5v-576h-153v568h-445v153z" />
    <glyph glyph-name="eight" unicode="8" horiz-adv-x="834" 
d="M764 601v-166.999c0 -24.667 -5.66699 -47.667 -17 -69c11.333 -20.667 17 -43.334 17 -68.001v-152c0 -39.333 -14.333 -73.333 -43 -102s-63 -43 -103 -43h-415c-40 -0 -74.333 14.333 -103 43s-43 62.667 -43 102v152c0 21.333 5.66699 44 17 68
c-11.333 24 -17 47 -17 69v141c0 40 14.333 74.167 43 102.5s63 42.5 103 42.5h415c36 0 67.833 -11.333 95.5 -34s44.5 -51 50.5 -85zM210 288.001v-135h401v135h-401zM210 566.001v-134h401v134h-401z" />
    <glyph glyph-name="nine" unicode="9" 
d="M616 0l-416.002 0.000976562c-35.333 0 -67.166 14.667 -95.499 44s-46.166 65.666 -53.499 108.999h557v128h-408c-40 0 -74.333 14.333 -103 43s-43 63 -43 103v148c0 40 14.333 74.167 43 102.5s63 42.5 103 42.5h416c40 0 74.167 -14.167 102.5 -42.5
s42.5 -62.5 42.5 -102.5v-430c0 -39.333 -14.167 -73.333 -42.5 -102s-62.5 -43 -102.5 -43zM207.998 435.001h400v132h-400v-132z" />
    <glyph glyph-name="colon" unicode=":" horiz-adv-x="247" 
d="M54 153h153v-153h-153v153zM207 580v-154h-153v154h153z" />
    <glyph glyph-name="semicolon" unicode=";" horiz-adv-x="266" 
d="M205 580v-154h-154v154h154zM52 142h153v-126c0 -36 -14.5 -68 -43.5 -96s-65.5 -45.667 -109.5 -53v275z" />
    <glyph glyph-name="less" unicode="&#x3c;" horiz-adv-x="473" 
d="M198 296l234 -136v-177l-427 248v128l427 248v-176z" />
    <glyph glyph-name="equal" unicode="=" horiz-adv-x="638" 
d="M585 282v-153h-526v153h526zM585 484v-153h-526v153h526z" />
    <glyph glyph-name="greater" unicode="&#x3e;" horiz-adv-x="475" 
d="M59 -19l-0.000976562 178l233 135l-128 72c-10 5.33301 -27.167 15.5 -51.5 30.5s-42.166 25.5 -53.499 31.5v177l428 -247v-129z" />
    <glyph glyph-name="question" unicode="?" horiz-adv-x="678" 
d="M31 720h476c40.667 0 75.167 -14.167 103.5 -42.5s42.5 -62.5 42.5 -102.5v-166c0 -40 -14.167 -74.333 -42.5 -103s-62.833 -43 -103.5 -43h-225v-69h-154v78c0 40 14.167 74.167 42.5 102.5s62.5 42.5 102.5 42.5h227v150h-469v153zM282 0h-154v153h154v-153z" />
    <glyph glyph-name="at" unicode="@" horiz-adv-x="831" 
d="M380 519h62c40 0 70.833 -10.833 92.5 -32.5s32.5 -52.5 32.5 -92.5v-63h44v236h-401v-414h554v-153h-561c-40 -0 -74.333 14.333 -103 43s-43 62.667 -43 102v430c0 40 14.333 74.167 43 102.5s63 42.5 103 42.5h415c40 0 74.333 -14.167 103 -42.5s43 -62.5 43 -102.5
v-359h-384c-40 0 -71 10.833 -93 32.5s-33 52.5 -33 92.5v53c0 40 11 70.833 33 92.5s53 32.5 93 32.5zM360 331h101v82h-101v-82z" />
    <glyph glyph-name="A" unicode="A" horiz-adv-x="836" 
d="M206 720h423c41.333 0 76.5 -14.5 105.5 -43.5s43.5 -63.833 43.5 -104.5v-572h-157v232h-408v-232h-155v572c0 41.333 14.333 76.333 43 105s63.667 43 105 43zM213 388h408v176h-408v-176z" />
    <glyph glyph-name="B" unicode="B" horiz-adv-x="832" 
d="M751 572v-135.001c0 -18.667 -2.33301 -34 -7 -46c23.333 -29.333 35 -60.666 35 -93.999v-149c0 -40.667 -14.5 -75.5 -43.5 -104.5s-64.167 -43.5 -105.5 -43.5h-571v720h544c40.667 0 75.5 -14.5 104.5 -43.5s43.5 -63.833 43.5 -104.5zM214 287.999v-132h408v132
h-408zM214 563.999v-120h380v120h-380z" />
    <glyph glyph-name="C" unicode="C" horiz-adv-x="822" 
d="M774 564h-563v-408h563v-156h-570c-41.333 -0 -76.333 14.333 -105 43s-43 63.667 -43 105v424c0 41.333 14.333 76.333 43 105s63.667 43 105 43h570v-156z" />
    <glyph glyph-name="D" unicode="D" horiz-adv-x="834" 
d="M58 720h571c41.333 0 76.5 -14.5 105.5 -43.5s43.5 -63.833 43.5 -104.5v-424c0 -40.667 -14.5 -75.5 -43.5 -104.5s-64.167 -43.5 -105.5 -43.5h-571v720zM213 564v-408h408v408h-408z" />
    <glyph glyph-name="E" unicode="E" horiz-adv-x="766" 
d="M723 720v-156h-508v-126h409v-156h-409v-126h508v-156h-665v720h665z" />
    <glyph glyph-name="F" unicode="F" horiz-adv-x="723" 
d="M58 720h665v-156h-508v-126h409v-156h-409v-282h-157v720z" />
    <glyph glyph-name="G" unicode="G" horiz-adv-x="830" 
d="M776 572v-68h-157v60h-408v-408h408v108h-156v156h313v-272c0 -40.667 -14.5 -75.5 -43.5 -104.5s-64.167 -43.5 -105.5 -43.5h-423c-41.333 -0 -76.333 14.333 -105 43s-43 63.667 -43 105v424c0 41.333 14.333 76.333 43 105s63.667 43 105 43h423
c41.333 0 76.5 -14.5 105.5 -43.5s43.5 -63.833 43.5 -104.5z" />
    <glyph glyph-name="H" unicode="H" horiz-adv-x="851" 
d="M637 720h155v-720h-155v282h-425v-282h-155v720h155v-282h425v282z" />
    <glyph glyph-name="I" unicode="I" horiz-adv-x="220" 
d="M57 0v720h156v-720h-156z" />
    <glyph glyph-name="J" unicode="J" horiz-adv-x="780" 
d="M159 241v-85h408v564h157v-572c0 -40.667 -14.5 -75.5 -43.5 -104.5s-63.833 -43.5 -104.5 -43.5h-424c-41.333 -0 -76.333 14.333 -105 43s-43 63.667 -43 105v93h155z" />
    <glyph glyph-name="K" unicode="K" horiz-adv-x="797" 
d="M590 720h162v-54l-257 -306l257 -306v-54h-162l-236 282h-141v-282h-156v720h156v-282h141l90 107z" />
    <glyph glyph-name="L" unicode="L" horiz-adv-x="779" 
d="M57 0v721h155v-565h565v-156h-720z" />
    <glyph glyph-name="M" unicode="M" horiz-adv-x="928" 
d="M460 429l243 291h161v-720h-156v483l-248 -296l-249 295v-482h-155v720h160z" />
    <glyph glyph-name="N" unicode="N" horiz-adv-x="832" 
d="M619 240v480h157v-720h-160l-405 482v-482h-155v720h160z" />
    <glyph glyph-name="O" unicode="O" 
d="M202 720h424c40.667 0 75.5 -14.5 104.5 -43.5s43.5 -63.833 43.5 -104.5v-424c0 -40.667 -14.5 -75.5 -43.5 -104.5s-63.833 -43.5 -104.5 -43.5h-424c-41.333 -0 -76.333 14.333 -105 43s-43 63.667 -43 105v424c0 41.333 14.333 76.333 43 105s63.667 43 105 43z
M209 564v-408h408v408h-408z" />
    <glyph glyph-name="P" unicode="P" horiz-adv-x="791" 
d="M56 719h571c40.667 0 75.667 -14.5 105 -43.5s44 -63.833 44 -104.5v-186c0 -40.667 -14.667 -75.5 -44 -104.5s-64.333 -43.5 -105 -43.5l-416 -1c2 0 3 -2 3 -6c-1.33301 0 -2.33301 0.333008 -3 1v-231h-155v719zM211 564v-171h408v171h-408z" />
    <glyph glyph-name="Q" unicode="Q" horiz-adv-x="884" 
d="M774 572v-416h82v-156h-654c-41.333 -0 -76.333 14.333 -105 43s-43 63.667 -43 105v424c0 41.333 14.333 76.333 43 105s63.667 43 105 43h423c41.333 0 76.5 -14.5 105.5 -43.5s43.5 -63.833 43.5 -104.5zM209 564v-408h408v408h-408z" />
    <glyph glyph-name="R" unicode="R" horiz-adv-x="825" 
d="M775 571v-186c0 -40.667 -14.667 -75.5 -44 -104.5s-64.333 -43.5 -105 -43.5h-7l156 -184v-53h-160l-199 237l-206 -1c2 0 3 -2 3 -6c-1.33301 0 -2.33301 0.333008 -3 1v-231h-155v719h571c40.667 0 75.667 -14.5 105 -43.5s44 -63.833 44 -104.5zM210 564v-171h408
v171h-408z" />
    <glyph glyph-name="S" unicode="S" horiz-adv-x="822" 
d="M771 572v-67h-157v59h-408v-126h417c40.667 0 75.5 -14.5 104.5 -43.5s43.5 -63.833 43.5 -104.5v-142c0 -40.667 -14.5 -75.5 -43.5 -104.5s-63.833 -43.5 -104.5 -43.5h-424c-40.667 -0 -75.5 14.333 -104.5 43s-43.5 63.667 -43.5 105v67h155v-59h408v126h-415
c-40.667 0 -75.5 14.333 -104.5 43s-43.5 63.667 -43.5 105v142c0 41.333 14.5 76.333 43.5 105s63.833 43 104.5 43h424c40.667 0 75.5 -14.5 104.5 -43.5s43.5 -63.833 43.5 -104.5z" />
    <glyph glyph-name="T" unicode="T" horiz-adv-x="759" 
d="M20 720h720v-156h-282v-564h-156v564h-282v156z" />
    <glyph glyph-name="U" unicode="U" 
d="M209 720v-564h408v564h157v-572c0 -40.667 -14.5 -75.5 -43.5 -104.5s-63.833 -43.5 -104.5 -43.5h-424c-41.333 -0 -76.333 14.333 -105 43s-43 63.667 -43 105v572h155z" />
    <glyph glyph-name="V" unicode="V" horiz-adv-x="1003" 
d="M517 197l302 523h179l-417 -720h-129l-417 720h180z" />
    <glyph glyph-name="W" unicode="W" horiz-adv-x="1179" 
d="M972 720h164l-262 -720h-119l-170 463l-64 -176l-105 -287h-119l-262 720h165l157 -429l25 67l132 362h143l158 -429l25 67z" />
    <glyph glyph-name="X" unicode="X" horiz-adv-x="812" 
d="M605 720l161.001 -0.000976562v-53l-258 -307l258 -306v-54h-161l-200 236l-198 -236h-161v53l257 307l-257 307v53h161l200 -237c19.333 24.667 52.666 64.834 99.999 120.501z" />
    <glyph glyph-name="Y" unicode="Y" horiz-adv-x="806" 
d="M653 720h187l-334 -452v-268h-156v269l-131 176l-202 275h185l226 -284z" />
    <glyph glyph-name="Z" unicode="Z" horiz-adv-x="821" 
d="M51 564v156h720v-159l-482 -405h482v-156h-720v159l482 405h-482z" />
    <glyph glyph-name="bracketleft" unicode="[" horiz-adv-x="275" 
d="M54 0v720h211v-153h-58v-414h58v-153h-211z" />
    <glyph glyph-name="backslash" unicode="\" horiz-adv-x="520" 
d="M5 720h55l461 -566v-154h-55l-461 566v154z" />
    <glyph glyph-name="bracketright" unicode="]" horiz-adv-x="276" 
d="M51 567v153h211v-720h-211v153h57v414h-57z" />
    <glyph glyph-name="underscore" unicode="_" 
d="M761 -2v-153h-707v153h707z" />
    <glyph glyph-name="grave" unicode="`" horiz-adv-x="272" 
d="M189 950l51 -203h-157l-51 203h157z" />
    <glyph glyph-name="a" unicode="a" horiz-adv-x="694" 
d="M495 580c40 0 74.167 -14.333 102.5 -43s42.5 -62.667 42.5 -102v-435h-443c-40 -0 -74.167 14.333 -102.5 43s-42.5 62.667 -42.5 102v222h435v60h-435v153h443zM487 153v80h-282v-80h282z" />
    <glyph glyph-name="b" unicode="b" horiz-adv-x="667" 
d="M497 580c40 0 74.167 -14.333 102.5 -43s42.5 -62.667 42.5 -102v-290c0 -39.333 -14.167 -73.333 -42.5 -102s-62.5 -43 -102.5 -43h-443v770h153v-190h290zM207 427v-274h282v274h-282z" />
    <glyph glyph-name="c" unicode="c" horiz-adv-x="695" 
d="M638 427h-434v-274h435v-153h-443c-39.333 -0 -73.333 14.333 -102 43s-43 62.667 -43 102v290c0 39.333 14.333 73.333 43 102s62.667 43 102 43h442v-153z" />
    <glyph glyph-name="d" unicode="d" horiz-adv-x="667" 
d="M459 770h153v-770h-444c-40 -0 -74.167 14.333 -102.5 43s-42.5 62.667 -42.5 102v290c0 39.333 14.167 73.333 42.5 102s62.5 43 102.5 43h291v190zM177 427v-274h282v274h-282z" />
    <glyph glyph-name="e" unicode="e" horiz-adv-x="692" 
d="M494 580c40 0 74.167 -14.333 102.5 -43s42.5 -62.667 42.5 -102v-222h-435v-60h435v-153h-443c-39.333 -0 -73.333 14.333 -102 43s-43 62.667 -43 102v290c0 39.333 14.333 73.333 43 102s62.667 43 102 43h298zM204 347h282v80h-282v-80z" />
    <glyph glyph-name="f" unicode="f" horiz-adv-x="440" 
d="M421 616h-215v-36h215v-153h-215v-427h-153v625c0 39.333 14.167 73.333 42.5 102s62.833 43 103.5 43h222v-154z" />
    <glyph glyph-name="g" unicode="g" horiz-adv-x="683" 
d="M630 -84c0 -40 -14.167 -74.167 -42.5 -102.5s-62.5 -42.5 -102.5 -42.5h-352v154h344v75h-290c-40 -0 -74.333 14.333 -103 43s-43 62.667 -43 102v290c0 39.333 14.333 73.333 43 102s63 43 103 43h298c40 0 74.167 -14.333 102.5 -43s42.5 -62.667 42.5 -102v-519z
M194 427v-274h283v274h-283z" />
    <glyph glyph-name="h" unicode="h" horiz-adv-x="668" 
d="M497 580c39.333 0 73.333 -14.333 102 -43s43 -62.667 43 -102v-435h-153v427h-282v-427h-153v770h153v-190h290z" />
    <glyph glyph-name="i" unicode="i" horiz-adv-x="229" 
d="M52 0v580h153v-580h-153zM52 770h153v-154h-153v154z" />
    <glyph glyph-name="j" unicode="j" horiz-adv-x="239" 
d="M58 770h153v-154h-153v154zM211 580v-643c0 -40 -14.333 -74.167 -43 -102.5s-63 -42.5 -103 -42.5h-252v154h245v634h153z" />
    <glyph glyph-name="k" unicode="k" horiz-adv-x="646" 
d="M482 580h154v-52l-216 -238l216 -238v-52h-154l-197 213h-78v-213h-153v770h153v-403h78z" />
    <glyph glyph-name="l" unicode="l" horiz-adv-x="337" 
d="M52 771h154v-618h117v-153h-126c-39.333 -0 -73.333 14.333 -102 43s-43 62.667 -43 102v626z" />
    <glyph glyph-name="m" unicode="m" horiz-adv-x="978" 
d="M752 580c40 0 74.167 -14.333 102.5 -43s42.5 -62.667 42.5 -102v-435h-152v427h-192v-427h-154v427h-192v-427h-153v580h698z" />
    <glyph glyph-name="n" unicode="n" horiz-adv-x="696" 
d="M497 580c40 0 74.167 -14.333 102.5 -43s42.5 -62.667 42.5 -102v-435h-153v427h-282v-427h-153v580h443z" />
    <glyph glyph-name="o" unicode="o" horiz-adv-x="692" 
d="M196 580h298c40 0 74.167 -14.333 102.5 -43s42.5 -62.667 42.5 -102v-290c0 -39.333 -14.167 -73.333 -42.5 -102s-62.5 -43 -102.5 -43h-298c-39.333 -0 -73.333 14.333 -102 43s-43 62.667 -43 102v290c0 39.333 14.333 73.333 43 102s62.667 43 102 43zM204 427v-274
h282v274h-282z" />
    <glyph glyph-name="p" unicode="p" horiz-adv-x="664" 
d="M497 580c40 0 74.167 -14.333 102.5 -43s42.5 -62.667 42.5 -102v-290c0 -39.333 -14.167 -73.333 -42.5 -102s-62.5 -43 -102.5 -43h-290v-230h-153v810h443zM207 427v-274h282v274h-282z" />
    <glyph glyph-name="q" unicode="q" horiz-adv-x="664" 
d="M20 435c0 39.333 14.167 73.333 42.5 102s62.5 43 102.5 43h444v-810h-153v230h-291c-40 -0 -74.167 14.333 -102.5 43s-42.5 62.667 -42.5 102v290zM174 427v-274h282v274h-282z" />
    <glyph glyph-name="r" unicode="r" horiz-adv-x="526" 
d="M198 580h320v-153h-313v-427h-153v435c0 39.333 14.333 73.333 43 102s63 43 103 43z" />
    <glyph glyph-name="s" unicode="s" horiz-adv-x="686" 
d="M637 435v-29h-154v21h-282v-60h290c40.667 0 75.167 -14.167 103.5 -42.5s42.5 -62.5 42.5 -102.5v-77c0 -39.333 -14.167 -73.333 -42.5 -102s-62.833 -43 -103.5 -43h-298c-39.333 -0 -73.333 14.333 -102 43s-43 62.667 -43 102v29h153v-21h282v60h-290
c-39.333 0 -73.333 14.333 -102 43s-43 62.667 -43 102v77c0 39.333 14.333 73.333 43 102s62.667 43 102 43h298c40.667 0 75.167 -14.333 103.5 -43s42.5 -62.667 42.5 -102z" />
    <glyph glyph-name="t" unicode="t" horiz-adv-x="451" 
d="M421 427h-215v-274h215v-153h-222c-40.667 -0 -75.167 14.333 -103.5 43s-42.5 62.667 -42.5 102v607h153v-172h215v-153z" />
    <glyph glyph-name="u" unicode="u" horiz-adv-x="695" 
d="M488 580h153v-435c0 -39.333 -14.167 -73.333 -42.5 -102s-62.5 -43 -102.5 -43h-298c-40 -0 -74.167 14.333 -102.5 43s-42.5 62.667 -42.5 102v435h153v-427h282v427z" />
    <glyph glyph-name="v" unicode="v" horiz-adv-x="790" 
d="M615 580h176l-320 -580h-131l-319 580h176l209 -385z" />
    <glyph glyph-name="w" unicode="w" horiz-adv-x="1053" 
d="M857 580h162l-218 -580h-116l-157 346l-150 -346h-115l-228 580h162l125 -301l43 100l41.5 94l46.5 107h148l140 -305z" />
    <glyph glyph-name="x" unicode="x" horiz-adv-x="692" 
d="M486 580h158v-50l-200 -235l110 -134l90 -111v-50h-157l-142 174l-142 -174h-157v50l200 245l-200 235v50h157l142 -168z" />
    <glyph glyph-name="y" unicode="y" horiz-adv-x="685" 
d="M631 -63c0 -40 -14.167 -74.167 -42.5 -102.5s-62.5 -42.5 -102.5 -42.5h-352v154h344v54h-290c-40 -0 -74.333 14.333 -103 43s-43 62.667 -43 102v433h153v-425h283v425h153v-641z" />
    <glyph glyph-name="z" unicode="z" horiz-adv-x="698" 
d="M54 427v153h588v-157l-349 -270h349v-153h-588v157l349 270h-349z" />
    <glyph glyph-name="braceleft" unicode="{" horiz-adv-x="289" 
d="M216 331v-178.002h58v-153h-65c-40.667 0 -75.167 14.333 -103.5 43s-42.5 62.667 -42.5 102v135l-16 10h1c-2 0.666992 -6.16699 2.83398 -12.5 6.50098s-10.5 5.83398 -12.5 6.50098v131l40 22v119c0 40 14.167 74.167 42.5 102.5s62.833 42.5 103.5 42.5h65v-153h-58
v-161l-45 -38l23 -20v1z" />
    <glyph glyph-name="bar" unicode="|" horiz-adv-x="214" 
d="M54 -99v903h153v-903h-153z" />
    <glyph glyph-name="braceright" unicode="}" horiz-adv-x="289" 
d="M51 0v153h58v177l45 38l-45 38v161h-58v153h65c40 0 74.333 -14.167 103 -42.5s43 -62.5 43 -102.5v-118l40 -24v-128l-40 -25v-135c0 -39.333 -14.333 -73.333 -43 -102s-63 -43 -103 -43h-65z" />
    <glyph glyph-name="asciitilde" unicode="~" horiz-adv-x="404" 
d="M303 325c26.667 0 58.667 12 96 36v-126c-40 -16.667 -73 -25 -99 -25c-24 0 -55.5 10.167 -94.5 30.5s-69.833 30.5 -92.5 30.5c-25.333 0 -55 -13 -89 -39v132c35.333 15.333 67 23 95 23c25.333 0 57.5 -9.5 96.5 -28.5s68.167 -30.167 87.5 -33.5z" />
    <glyph glyph-name="exclamdown" unicode="&#xa1;" horiz-adv-x="210" 
d="M206 706v-153h-153v153h153zM206 0h-153v526h153v-526z" />
    <glyph glyph-name="cent" unicode="&#xa2;" horiz-adv-x="636" 
d="M621 435h-176v-282h176v-153h-176v-99h-154v99h-112c-40 -0 -74.333 14.333 -103 43s-43 62.667 -43 102v299c0 40 14.333 74.333 43 103s63 43 103 43h112v115h154v-115h176v-155zM291 153v282h-105v-282h105z" />
    <glyph glyph-name="sterling" unicode="&#xa3;" horiz-adv-x="734" 
d="M680 519h-154v48h-244v-137h302v-153h-302v-124h398v-153h-641v153h90v124h-90v153h90v145c0 40 14.333 74.167 43 102.5s62.667 42.5 102 42.5h261c40 0 74.167 -14.167 102.5 -42.5s42.5 -62.5 42.5 -102.5v-56z" />
    <glyph glyph-name="dieresis" unicode="&#xa8;" horiz-adv-x="385" 
d="M421 901v-154h-154v154h154zM207 901v-154h-153v154h153z" />
    <glyph glyph-name="degree" unicode="&#xb0;" horiz-adv-x="439" 
d="M191 706h81c39.333 0 73.333 -14.167 102 -42.5s43 -62.5 43 -102.5v-72c0 -40 -14.333 -74.333 -43 -103s-62.667 -43 -102 -43h-81c-40 0 -74.333 14.333 -103 43s-43 63 -43 103v72c0 40 14.333 74.167 43 102.5s63 42.5 103 42.5zM180 571v-92h102v92h-102z" />
    <glyph glyph-name="acute" unicode="&#xb4;" horiz-adv-x="213" 
d="M33 747l51 203h157l-51 -203h-157z" />
    <glyph glyph-name="paragraph" unicode="&#xb6;" horiz-adv-x="833" 
d="M56 560c0 39.333 14.333 73.5 43 102.5s63 43.5 103 43.5h581v-706h-153v232h-66v-232h-154v232h-208c-40 0 -74.333 14.333 -103 43s-43 62.667 -43 102v183zM410 552h-201v-166h201v166zM564 552v-166h66v166h-66z" />
    <glyph glyph-name="cedilla" unicode="&#xb8;" horiz-adv-x="213" 
d="M33 -146l51 202h157l-51 -202h-157z" />
    <glyph glyph-name="questiondown" unicode="&#xbf;" horiz-adv-x="675" 
d="M642 0h-477c-40 -0 -74.333 14.333 -103 43s-43 62.667 -43 102v167c0 40 14.333 74.167 43 102.5s63 42.5 103 42.5h226v75h153v-83c0 -40 -14.333 -74.333 -43 -103s-63 -43 -103 -43h-226v-150h470v-153zM544 706v-153h-153v153h153z" />
    <glyph glyph-name="Agrave" unicode="&#xc0;" horiz-adv-x="836" 
d="M206 720h423c41.333 0 76.5 -14.5 105.5 -43.5s43.5 -63.833 43.5 -104.5v-572h-157v232h-408v-232h-155v572c0 41.333 14.333 76.333 43 105s63.667 43 105 43zM213 388h408v176h-408v-176zM451 973l51 -203h-157l-51 203h157z" />
    <glyph glyph-name="Aacute" unicode="&#xc1;" horiz-adv-x="836" 
d="M206 720h423c41.333 0 76.5 -14.5 105.5 -43.5s43.5 -63.833 43.5 -104.5v-572h-157v232h-408v-232h-155v572c0 41.333 14.333 76.333 43 105s63.667 43 105 43zM213 388h408v176h-408v-176zM334 769l51 203h157l-51 -203h-157z" />
    <glyph glyph-name="Acircumflex" unicode="&#xc2;" horiz-adv-x="836" 
d="M206 720h423c41.333 0 76.5 -14.5 105.5 -43.5s43.5 -63.833 43.5 -104.5v-572h-157v232h-408v-232h-155v572c0 41.333 14.333 76.333 43 105s63.667 43 105 43zM213 388h408v176h-408v-176zM399 769h-133l110 184h100l110 -184h-134l-28 44z" />
    <glyph glyph-name="Atilde" unicode="&#xc3;" horiz-adv-x="836" 
d="M206 720h423c41.333 0 76.5 -14.5 105.5 -43.5s43.5 -63.833 43.5 -104.5v-572h-157v232h-408v-232h-155v572c0 41.333 14.333 76.333 43 105s63.667 43 105 43zM213 388h408v176h-408v-176zM481 889c26 0 57.9971 12.333 95.9971 37v-126
c-41.333 -17.333 -74.333 -26 -99 -26s-56.167 10.333 -94.5 31s-67.166 31 -86.499 31h-11c-28 0 -56 -12 -84 -36v124c45.333 18 77 27 95 27c24.667 0 56.334 -9.66699 95.001 -29s68.334 -30.333 89.001 -33z" />
    <glyph glyph-name="Adieresis" unicode="&#xc4;" horiz-adv-x="836" 
d="M206 720h423c41.333 0 76.5 -14.5 105.5 -43.5s43.5 -63.833 43.5 -104.5v-572h-157v232h-408v-232h-155v572c0 41.333 14.333 76.333 43 105s63.667 43 105 43zM213 388h408v176h-408v-176zM606 924v-154h-154v154h154zM392 924v-154h-153v154h153z" />
    <glyph glyph-name="Aring" unicode="&#xc5;" horiz-adv-x="836" 
d="M206 720h423c41.333 0 76.5 -14.5 105.5 -43.5s43.5 -63.833 43.5 -104.5v-572h-157v232h-408v-232h-155v572c0 41.333 14.333 76.333 43 105s63.667 43 105 43zM213 388h408v176h-408v-176zM377 972h51c20.667 0 38.5 -7.5 53.5 -22.5s22.5 -32.833 22.5 -53.5v-49
c0 -20.667 -7.5 -38.5 -22.5 -53.5s-32.833 -22.5 -53.5 -22.5h-51c-20.667 0 -38.667 7.5 -54 22.5s-23 32.833 -23 53.5v49c0 20.667 7.66699 38.5 23 53.5s33.333 22.5 54 22.5zM377 894v-54h51v54h-51z" />
    <glyph glyph-name="AE" unicode="&#xc6;" horiz-adv-x="1375" 
d="M774 564v-126h409v-156h-409v-126h509v-156h-664v232h-408v-232h-157v572c0 40.667 14.5 75.5 43.5 104.5s63.833 43.5 104.5 43.5h1081v-156h-509zM619 388v176h-408v-176h408z" />
    <glyph glyph-name="Ccedilla" unicode="&#xc7;" horiz-adv-x="822" 
d="M774 564h-563v-408h563v-156h-243l-47 -156h-157l47 156h-170c-41.333 -0 -76.333 14.333 -105 43s-43 63.667 -43 105v424c0 41.333 14.333 76.333 43 105s63.667 43 105 43h570v-156z" />
    <glyph glyph-name="Egrave" unicode="&#xc8;" horiz-adv-x="766" 
d="M723 720v-156h-508v-126h409v-156h-409v-126h508v-156h-665v720h665zM436 973l51 -203h-157l-51 203h157z" />
    <glyph glyph-name="Eacute" unicode="&#xc9;" horiz-adv-x="766" 
d="M723 720v-156h-508v-126h409v-156h-409v-126h508v-156h-665v720h665zM309 770l51 203h157l-51 -203h-157z" />
    <glyph glyph-name="Ecircumflex" unicode="&#xca;" horiz-adv-x="766" 
d="M723 720v-156h-508v-126h409v-156h-409v-126h508v-156h-665v720h665zM364 769h-133l110 184h100l110 -184h-134l-28 44z" />
    <glyph glyph-name="Edieresis" unicode="&#xcb;" horiz-adv-x="766" 
d="M723 720v-156h-508v-126h409v-156h-409v-126h508v-156h-665v720h665zM581 924v-154h-154v154h154zM367 924v-154h-153v154h153z" />
    <glyph glyph-name="Igrave" unicode="&#xcc;" horiz-adv-x="220" 
d="M95 0v720h156v-720h-156zM193 973l51 -203h-157l-51 203h157z" />
    <glyph glyph-name="Iacute" unicode="&#xcd;" horiz-adv-x="220" 
d="M42 0v720h156v-720h-156zM36 770l51 203h157l-51 -203h-157z" />
    <glyph glyph-name="Icircumflex" unicode="&#xce;" horiz-adv-x="220" 
d="M62 0v720h156v-720h-156zM121 769h-133l110 184h100l110 -184h-134l-28 44z" />
    <glyph glyph-name="Idieresis" unicode="&#xcf;" horiz-adv-x="220" 
d="M74 0v720h156v-720h-156zM338 924v-154h-154v154h154zM124 924v-154h-153v154h153z" />
    <glyph glyph-name="Ntilde" unicode="&#xd1;" horiz-adv-x="832" 
d="M619 240v480h157v-720h-160l-405 482v-482h-155v720h160zM499 889c26 0 57.9971 12.333 95.9971 37v-126c-41.333 -17.333 -74.333 -26 -99 -26s-56.167 10.333 -94.5 31s-67.166 31 -86.499 31h-11c-28 0 -56 -12 -84 -36v124c45.333 18 77 27 95 27
c24.667 0 56.334 -9.66699 95.001 -29s68.334 -30.333 89.001 -33z" />
    <glyph glyph-name="Ograve" unicode="&#xd2;" 
d="M202 720h424c40.667 0 75.5 -14.5 104.5 -43.5s43.5 -63.833 43.5 -104.5v-424c0 -40.667 -14.5 -75.5 -43.5 -104.5s-63.833 -43.5 -104.5 -43.5h-424c-41.333 -0 -76.333 14.333 -105 43s-43 63.667 -43 105v424c0 41.333 14.333 76.333 43 105s63.667 43 105 43z
M209 564v-408h408v408h-408zM457 973l51 -203h-157l-51 203h157z" />
    <glyph glyph-name="Oacute" unicode="&#xd3;" 
d="M202 720h424c40.667 0 75.5 -14.5 104.5 -43.5s43.5 -63.833 43.5 -104.5v-424c0 -40.667 -14.5 -75.5 -43.5 -104.5s-63.833 -43.5 -104.5 -43.5h-424c-41.333 -0 -76.333 14.333 -105 43s-43 63.667 -43 105v424c0 41.333 14.333 76.333 43 105s63.667 43 105 43z
M209 564v-408h408v408h-408zM340 770l51 203h157l-51 -203h-157z" />
    <glyph glyph-name="Ocircumflex" unicode="&#xd4;" 
d="M202 720h424c40.667 0 75.5 -14.5 104.5 -43.5s43.5 -63.833 43.5 -104.5v-424c0 -40.667 -14.5 -75.5 -43.5 -104.5s-63.833 -43.5 -104.5 -43.5h-424c-41.333 -0 -76.333 14.333 -105 43s-43 63.667 -43 105v424c0 41.333 14.333 76.333 43 105s63.667 43 105 43z
M209 564v-408h408v408h-408zM395 769h-133l110 184h100l110 -184h-134l-28 44z" />
    <glyph glyph-name="Otilde" unicode="&#xd5;" 
d="M202 720h424c40.667 0 75.5 -14.5 104.5 -43.5s43.5 -63.833 43.5 -104.5v-424c0 -40.667 -14.5 -75.5 -43.5 -104.5s-63.833 -43.5 -104.5 -43.5h-424c-41.333 -0 -76.333 14.333 -105 43s-43 63.667 -43 105v424c0 41.333 14.333 76.333 43 105s63.667 43 105 43z
M209 564v-408h408v408h-408zM487 889c26 0 57.9971 12.333 95.9971 37v-126c-41.333 -17.333 -74.333 -26 -99 -26s-56.167 10.333 -94.5 31s-67.166 31 -86.499 31h-11c-28 0 -56 -12 -84 -36v124c45.333 18 77 27 95 27c24.667 0 56.334 -9.66699 95.001 -29
s68.334 -30.333 89.001 -33z" />
    <glyph glyph-name="Odieresis" unicode="&#xd6;" 
d="M202 720h424c40.667 0 75.5 -14.5 104.5 -43.5s43.5 -63.833 43.5 -104.5v-424c0 -40.667 -14.5 -75.5 -43.5 -104.5s-63.833 -43.5 -104.5 -43.5h-424c-41.333 -0 -76.333 14.333 -105 43s-43 63.667 -43 105v424c0 41.333 14.333 76.333 43 105s63.667 43 105 43z
M209 564v-408h408v408h-408zM602 924v-154h-154v154h154zM388 924v-154h-153v154h153z" />
    <glyph glyph-name="multiply" unicode="&#xd7;" horiz-adv-x="546" 
d="M507 516l0.000976562 -50l-130 -166l130 -168v-50h-159l-69 93c-6.66699 -10.667 -18.334 -26.5 -35.001 -47.5s-28 -36.167 -34 -45.5h-157v50l129 168l-129 166v50h158l68 -94l69 94h159z" />
    <glyph glyph-name="Ugrave" unicode="&#xd9;" 
d="M209 720v-564h408v564h157v-572c0 -40.667 -14.5 -75.5 -43.5 -104.5s-63.833 -43.5 -104.5 -43.5h-424c-41.333 -0 -76.333 14.333 -105 43s-43 63.667 -43 105v572h155zM457 973l51 -203h-157l-51 203h157z" />
    <glyph glyph-name="Uacute" unicode="&#xda;" 
d="M209 720v-564h408v564h157v-572c0 -40.667 -14.5 -75.5 -43.5 -104.5s-63.833 -43.5 -104.5 -43.5h-424c-41.333 -0 -76.333 14.333 -105 43s-43 63.667 -43 105v572h155zM320 770l51 203h157l-51 -203h-157z" />
    <glyph glyph-name="Ucircumflex" unicode="&#xdb;" 
d="M209 720v-564h408v564h157v-572c0 -40.667 -14.5 -75.5 -43.5 -104.5s-63.833 -43.5 -104.5 -43.5h-424c-41.333 -0 -76.333 14.333 -105 43s-43 63.667 -43 105v572h155zM395 769h-133l110 184h100l110 -184h-134l-28 44z" />
    <glyph glyph-name="Udieresis" unicode="&#xdc;" 
d="M209 720v-564h408v564h157v-572c0 -40.667 -14.5 -75.5 -43.5 -104.5s-63.833 -43.5 -104.5 -43.5h-424c-41.333 -0 -76.333 14.333 -105 43s-43 63.667 -43 105v572h155zM602 924v-154h-154v154h154zM388 924v-154h-153v154h153z" />
    <glyph glyph-name="Yacute" unicode="&#xdd;" horiz-adv-x="806" 
d="M653 720h187l-334 -452v-268h-156v269l-131 176l-202 275h185l226 -284zM329 770l51 203h157l-51 -203h-157z" />
    <glyph glyph-name="germandbls" unicode="&#xdf;" horiz-adv-x="833" 
d="M764 587v-155.999c0 -24.667 -5.66699 -47.667 -17 -69c11.333 -20.667 17 -43.334 17 -68.001v-149c0 -39.333 -14.333 -73.333 -43 -102s-63 -43 -103 -43h-345v153h338v132h-338v144h338v123h-401v-552h-153v561c0 40 14.333 74.167 43 102.5s63 42.5 103 42.5h415
c36 0 67.833 -11.333 95.5 -34s44.5 -51 50.5 -85z" />
    <glyph glyph-name="agrave" unicode="&#xe0;" horiz-adv-x="725" 
d="M495 580c40 0 74.167 -14.333 102.5 -43s42.5 -62.667 42.5 -102v-435h-443c-40 -0 -74.167 14.333 -102.5 43s-42.5 62.667 -42.5 102v222h435v60h-435v153h443zM487 153v80h-282v-80h282zM415 841l51 -203h-157l-51 203h157z" />
    <glyph glyph-name="aacute" unicode="&#xe1;" horiz-adv-x="725" 
d="M495 580c40 0 74.167 -14.333 102.5 -43s42.5 -62.667 42.5 -102v-435h-443c-40 -0 -74.167 14.333 -102.5 43s-42.5 62.667 -42.5 102v222h435v60h-435v153h443zM487 153v80h-282v-80h282zM278 638l51 203h157l-51 -203h-157z" />
    <glyph glyph-name="acircumflex" unicode="&#xe2;" horiz-adv-x="725" 
d="M495 580c40 0 74.167 -14.333 102.5 -43s42.5 -62.667 42.5 -102v-435h-443c-40 -0 -74.167 14.333 -102.5 43s-42.5 62.667 -42.5 102v222h435v60h-435v153h443zM487 153v80h-282v-80h282zM343 638h-133l110 184h100l110 -184h-134l-28 44z" />
    <glyph glyph-name="atilde" unicode="&#xe3;" horiz-adv-x="725" 
d="M495 580c40 0 74.167 -14.333 102.5 -43s42.5 -62.667 42.5 -102v-435h-443c-40 -0 -74.167 14.333 -102.5 43s-42.5 62.667 -42.5 102v222h435v60h-435v153h443zM487 153v80h-282v-80h282zM415 756c26 0 57.9971 12.333 95.9971 37v-126
c-41.333 -17.333 -74.333 -26 -99 -26s-56.167 10.333 -94.5 31s-67.166 31 -86.499 31h-11c-28 0 -56 -12 -84 -36v124c45.333 18 77 27 95 27c24.667 0 56.334 -9.66699 95.001 -29s68.334 -30.333 89.001 -33z" />
    <glyph glyph-name="adieresis" unicode="&#xe4;" horiz-adv-x="725" 
d="M495 580c40 0 74.167 -14.333 102.5 -43s42.5 -62.667 42.5 -102v-435h-443c-40 -0 -74.167 14.333 -102.5 43s-42.5 62.667 -42.5 102v222h435v60h-435v153h443zM487 153v80h-282v-80h282zM540 792v-154h-154v154h154zM326 792v-154h-153v154h153z" />
    <glyph glyph-name="aring" unicode="&#xe5;" horiz-adv-x="725" 
d="M495 580c40 0 74.167 -14.333 102.5 -43s42.5 -62.667 42.5 -102v-435h-443c-40 -0 -74.167 14.333 -102.5 43s-42.5 62.667 -42.5 102v222h435v60h-435v153h443zM487 153v80h-282v-80h282zM281 839h51c20.667 0 38.5 -7.5 53.5 -22.5s22.5 -32.833 22.5 -53.5v-49
c0 -20.667 -7.5 -38.5 -22.5 -53.5s-32.833 -22.5 -53.5 -22.5h-51c-20.667 0 -38.667 7.5 -54 22.5s-23 32.833 -23 53.5v49c0 20.667 7.66699 38.5 23 53.5s33.333 22.5 54 22.5zM281 761v-54h51v54h-51z" />
    <glyph glyph-name="ae" unicode="&#xe6;" horiz-adv-x="1178" 
d="M933 580c40 0 74 -14.167 102 -42.5s42 -62.5 42 -102.5v-222h-435v-60h435v-153h-879c-40 -0 -74.167 14.333 -102.5 43s-42.5 62.667 -42.5 102v222h436v60h-436v153h880zM489 153v80h-283v-80h283zM642 347h282v80h-282v-80z" />
    <glyph glyph-name="ccedilla" unicode="&#xe7;" horiz-adv-x="693" 
d="M204 153h435v-153h-229c-3.33301 -16 -9.83301 -38 -19.5 -66s-16.167 -48.667 -19.5 -62h-97c3.33301 16 9.83301 38 19.5 66s16.167 48.667 19.5 62h-117c-39.333 -0 -73.333 14.333 -102 43s-43 62.667 -43 102v290c0 39.333 14.333 73.333 43 102s62.667 43 102 43
h442v-153h-434v-274z" />
    <glyph glyph-name="egrave" unicode="&#xe8;" horiz-adv-x="638" 
d="M494 580c40 0 74.167 -14.333 102.5 -43s42.5 -62.667 42.5 -102v-222h-435v-60h435v-153h-443c-39.333 -0 -73.333 14.333 -102 43s-43 62.667 -43 102v290c0 39.333 14.333 73.333 43 102s62.667 43 102 43h298zM204 347h282v80h-282v-80zM402 841l51 -203h-157
l-51 203h157z" />
    <glyph glyph-name="eacute" unicode="&#xe9;" horiz-adv-x="638" 
d="M494 580c40 0 74.167 -14.333 102.5 -43s42.5 -62.667 42.5 -102v-222h-435v-60h435v-153h-443c-39.333 -0 -73.333 14.333 -102 43s-43 62.667 -43 102v290c0 39.333 14.333 73.333 43 102s62.667 43 102 43h298zM204 347h282v80h-282v-80zM265 639l51 203h157l-51 -203
h-157z" />
    <glyph glyph-name="ecircumflex" unicode="&#xea;" horiz-adv-x="638" 
d="M494 580c40 0 74.167 -14.333 102.5 -43s42.5 -62.667 42.5 -102v-222h-435v-60h435v-153h-443c-39.333 -0 -73.333 14.333 -102 43s-43 62.667 -43 102v290c0 39.333 14.333 73.333 43 102s62.667 43 102 43h298zM204 347h282v80h-282v-80zM330 638h-133l110 184h100
l110 -184h-134l-28 44z" />
    <glyph glyph-name="edieresis" unicode="&#xeb;" horiz-adv-x="638" 
d="M494 580c40 0 74.167 -14.333 102.5 -43s42.5 -62.667 42.5 -102v-222h-435v-60h435v-153h-443c-39.333 -0 -73.333 14.333 -102 43s-43 62.667 -43 102v290c0 39.333 14.333 73.333 43 102s62.667 43 102 43h298zM204 347h282v80h-282v-80zM547 792v-154h-154v154h154z
M333 792v-154h-153v154h153z" />
    <glyph glyph-name="igrave" unicode="&#xec;" horiz-adv-x="214" 
d="M56 0v580h153v-580h-153zM173 842l51 -203h-157l-51 203h157z" />
    <glyph glyph-name="iacute" unicode="&#xed;" horiz-adv-x="214" 
d="M51 0v580h153v-580h-153zM49 638l51 203h157l-51 -203h-157z" />
    <glyph glyph-name="icircumflex" unicode="&#xee;" horiz-adv-x="214" 
d="M51 0v580h153v-580h-153zM118 638h-133l110 184h100l110 -184h-134l-28 44z" />
    <glyph glyph-name="idieresis" unicode="&#xef;" horiz-adv-x="214" 
d="M55 0v580h153v-580h-153zM335 794v-154h-154v154h154zM121 794v-154h-153v154h153z" />
    <glyph glyph-name="ntilde" unicode="&#xf1;" horiz-adv-x="708" 
d="M497 580c40 0 74.167 -14.333 102.5 -43s42.5 -62.667 42.5 -102v-435h-153v427h-282v-427h-153v580h443zM417 755c26 0 57.9971 12.333 95.9971 37v-126c-41.333 -17.333 -74.333 -26 -99 -26s-56.167 10.333 -94.5 31s-67.166 31 -86.499 31h-11c-28 0 -56 -12 -84 -36
v124c45.333 18 77 27 95 27c24.667 0 56.334 -9.66699 95.001 -29s68.334 -30.333 89.001 -33z" />
    <glyph glyph-name="ograve" unicode="&#xf2;" horiz-adv-x="692" 
d="M196 580h298c40 0 74.167 -14.333 102.5 -43s42.5 -62.667 42.5 -102v-290c0 -39.333 -14.167 -73.333 -42.5 -102s-62.5 -43 -102.5 -43h-298c-39.333 -0 -73.333 14.333 -102 43s-43 62.667 -43 102v290c0 39.333 14.333 73.333 43 102s62.667 43 102 43zM204 427v-274
h282v274h-282zM399 842l51 -203h-157l-51 203h157z" />
    <glyph glyph-name="oacute" unicode="&#xf3;" horiz-adv-x="692" 
d="M196 580h298c40 0 74.167 -14.333 102.5 -43s42.5 -62.667 42.5 -102v-290c0 -39.333 -14.167 -73.333 -42.5 -102s-62.5 -43 -102.5 -43h-298c-39.333 -0 -73.333 14.333 -102 43s-43 62.667 -43 102v290c0 39.333 14.333 73.333 43 102s62.667 43 102 43zM204 427v-274
h282v274h-282zM262 639l51 203h157l-51 -203h-157z" />
    <glyph glyph-name="ocircumflex" unicode="&#xf4;" horiz-adv-x="692" 
d="M196 580h298c40 0 74.167 -14.333 102.5 -43s42.5 -62.667 42.5 -102v-290c0 -39.333 -14.167 -73.333 -42.5 -102s-62.5 -43 -102.5 -43h-298c-39.333 -0 -73.333 14.333 -102 43s-43 62.667 -43 102v290c0 39.333 14.333 73.333 43 102s62.667 43 102 43zM204 427v-274
h282v274h-282zM327 638h-133l110 184h100l110 -184h-134l-28 44z" />
    <glyph glyph-name="otilde" unicode="&#xf5;" horiz-adv-x="692" 
d="M196 580h298c40 0 74.167 -14.333 102.5 -43s42.5 -62.667 42.5 -102v-290c0 -39.333 -14.167 -73.333 -42.5 -102s-62.5 -43 -102.5 -43h-298c-39.333 -0 -73.333 14.333 -102 43s-43 62.667 -43 102v290c0 39.333 14.333 73.333 43 102s62.667 43 102 43zM204 427v-274
h282v274h-282zM419 755c26 0 57.9971 12.333 95.9971 37v-126c-41.333 -17.333 -74.333 -26 -99 -26s-56.167 10.333 -94.5 31s-67.166 31 -86.499 31h-11c-28 0 -56 -12 -84 -36v124c45.333 18 77 27 95 27c24.667 0 56.334 -9.66699 95.001 -29s68.334 -30.333 89.001 -33
z" />
    <glyph glyph-name="odieresis" unicode="&#xf6;" horiz-adv-x="692" 
d="M196 580h298c40 0 74.167 -14.333 102.5 -43s42.5 -62.667 42.5 -102v-290c0 -39.333 -14.167 -73.333 -42.5 -102s-62.5 -43 -102.5 -43h-298c-39.333 -0 -73.333 14.333 -102 43s-43 62.667 -43 102v290c0 39.333 14.333 73.333 43 102s62.667 43 102 43zM204 427v-274
h282v274h-282zM534 794v-154h-154v154h154zM320 794v-154h-153v154h153z" />
    <glyph glyph-name="divide" unicode="&#xf7;" horiz-adv-x="519" 
d="M497 393v-153h-490v153h490zM183 153h153v-153h-153v153zM336 616v-154h-153v154h153z" />
    <glyph glyph-name="ugrave" unicode="&#xf9;" horiz-adv-x="695" 
d="M488 580h153v-435c0 -39.333 -14.167 -73.333 -42.5 -102s-62.5 -43 -102.5 -43h-298c-40 -0 -74.167 14.333 -102.5 43s-42.5 62.667 -42.5 102v435h153v-427h282v427zM390 842l51 -203h-157l-51 203h157z" />
    <glyph glyph-name="uacute" unicode="&#xfa;" horiz-adv-x="695" 
d="M488 580h153v-435c0 -39.333 -14.167 -73.333 -42.5 -102s-62.5 -43 -102.5 -43h-298c-40 -0 -74.167 14.333 -102.5 43s-42.5 62.667 -42.5 102v435h153v-427h282v427zM273 639l51 203h157l-51 -203h-157z" />
    <glyph glyph-name="ucircumflex" unicode="&#xfb;" horiz-adv-x="695" 
d="M488 580h153v-435c0 -39.333 -14.167 -73.333 -42.5 -102s-62.5 -43 -102.5 -43h-298c-40 -0 -74.167 14.333 -102.5 43s-42.5 62.667 -42.5 102v435h153v-427h282v427zM318 639h-133l110 184h100l110 -184h-134l-28 44z" />
    <glyph glyph-name="udieresis" unicode="&#xfc;" horiz-adv-x="695" 
d="M488 580h153v-435c0 -39.333 -14.167 -73.333 -42.5 -102s-62.5 -43 -102.5 -43h-298c-40 -0 -74.167 14.333 -102.5 43s-42.5 62.667 -42.5 102v435h153v-427h282v427zM545 792v-154h-154v154h154zM331 792v-154h-153v154h153z" />
    <glyph glyph-name="yacute" unicode="&#xfd;" horiz-adv-x="688" 
d="M631 -63c0 -40 -14.167 -74.167 -42.5 -102.5s-62.5 -42.5 -102.5 -42.5h-352v154h344v54h-290c-40 -0 -74.333 14.333 -103 43s-43 62.667 -43 102v433h153v-425h283v425h153v-641zM270 639l51 203h157l-51 -203h-157z" />
    <glyph glyph-name="ydieresis" unicode="&#xff;" horiz-adv-x="688" 
d="M631 -63c0 -40 -14.167 -74.167 -42.5 -102.5s-62.5 -42.5 -102.5 -42.5h-352v154h344v54h-290c-40 -0 -74.333 14.333 -103 43s-43 62.667 -43 102v433h153v-425h283v425h153v-641zM542 794v-154h-154v154h154zM328 794v-154h-153v154h153z" />
    <glyph glyph-name="dotlessi" unicode="&#x131;" horiz-adv-x="214" 
d="M52 0v580h153v-580h-153z" />
    <glyph glyph-name="OE" unicode="&#x152;" horiz-adv-x="1374" 
d="M773 564v-126h409v-156h-409v-126h509v-156h-1081c-40.667 0 -75.5 14.5 -104.5 43.5s-43.5 63.833 -43.5 104.5v424c0 40.667 14.5 75.5 43.5 104.5s63.833 43.5 104.5 43.5h1081v-156h-509zM210 564v-408h408v408h-408z" />
    <glyph glyph-name="oe" unicode="&#x153;" horiz-adv-x="1177" 
d="M1076 213h-435v-60h435v-153h-878c-40 -0 -74.333 14.333 -103 43s-43 62.667 -43 102v290c0 39.333 14.333 73.333 43 102s63 43 103 43h734c40 0 74 -14.167 102 -42.5s42 -62.5 42 -102.5v-222zM641 347h282v80h-282v-80zM205 427v-274h283v274h-283z" />
    <glyph glyph-name="Scaron" unicode="&#x160;" horiz-adv-x="822" 
d="M771 572v-67h-157v59h-408v-126h417c40.667 0 75.5 -14.5 104.5 -43.5s43.5 -63.833 43.5 -104.5v-142c0 -40.667 -14.5 -75.5 -43.5 -104.5s-63.833 -43.5 -104.5 -43.5h-424c-40.667 -0 -75.5 14.333 -104.5 43s-43.5 63.667 -43.5 105v67h155v-59h408v126h-415
c-40.667 0 -75.5 14.333 -104.5 43s-43.5 63.667 -43.5 105v142c0 41.333 14.5 76.333 43.5 105s63.833 43 104.5 43h424c40.667 0 75.5 -14.5 104.5 -43.5s43.5 -63.833 43.5 -104.5zM259 953h131l27 -44l27 44h135l-110 -184h-100z" />
    <glyph glyph-name="scaron" unicode="&#x161;" horiz-adv-x="687" 
d="M637 435v-29h-154v21h-282v-60h290c40.667 0 75.167 -14.167 103.5 -42.5s42.5 -62.5 42.5 -102.5v-77c0 -39.333 -14.167 -73.333 -42.5 -102s-62.833 -43 -103.5 -43h-298c-39.333 -0 -73.333 14.333 -102 43s-43 62.667 -43 102v29h153v-21h282v60h-290
c-39.333 0 -73.333 14.333 -102 43s-43 62.667 -43 102v77c0 39.333 14.333 73.333 43 102s62.667 43 102 43h298c40.667 0 75.167 -14.333 103.5 -43s42.5 -62.667 42.5 -102zM191 822h131l27 -44l27 44h135l-110 -184h-100z" />
    <glyph glyph-name="Ydieresis" unicode="&#x178;" horiz-adv-x="806" 
d="M653 720h187l-334 -452v-268h-156v269l-131 176l-202 275h185l226 -284zM611 924v-154h-154v154h154zM397 924v-154h-153v154h153z" />
    <glyph glyph-name="Zcaron" unicode="&#x17d;" horiz-adv-x="821" 
d="M51 564v156h720v-159l-482 -405h482v-156h-720v159l482 405h-482zM258 953h131l27 -44l27 44h135l-110 -184h-100z" />
    <glyph glyph-name="zcaron" unicode="&#x17e;" horiz-adv-x="698" 
d="M54 427v153h588v-157l-349 -270h349v-153h-588v157l349 270h-349zM197 835h131l27 -44l27 44h135l-110 -184h-100z" />
    <glyph glyph-name="circumflex" unicode="&#x2c6;" horiz-adv-x="300" 
d="M161 746h-133l110 184h100l110 -184h-134l-28 44z" />
    <glyph glyph-name="caron" unicode="&#x2c7;" horiz-adv-x="297" 
d="M27 930h131l27 -44l27 44h135l-110 -184h-100z" />
    <glyph glyph-name="breve" unicode="&#x2d8;" horiz-adv-x="287" 
d="M181 880h101v-35c0 -26.667 -9.33301 -49.667 -28 -69s-42 -29 -70 -29h-46c-28 0 -51.333 9.66699 -70 29s-28 42.333 -28 69v35h102v-30h39v30z" />
    <glyph glyph-name="dotaccent" unicode="&#x2d9;" horiz-adv-x="233" 
d="M122 931h32c20.667 0 38.667 -7.5 54 -22.5s23 -32.833 23 -53.5v-31c0 -20.667 -7.66699 -38.5 -23 -53.5s-33.333 -22.5 -54 -22.5h-32c-20.667 0 -38.667 7.5 -54 22.5s-23 32.833 -23 53.5v31c0 20.667 7.66699 38.5 23 53.5s33.333 22.5 54 22.5z" />
    <glyph glyph-name="ring" unicode="&#x2da;" horiz-adv-x="233" 
d="M86 949h51c20.667 0 38.5 -7.5 53.5 -22.5s22.5 -32.833 22.5 -53.5v-49c0 -20.667 -7.5 -38.5 -22.5 -53.5s-32.833 -22.5 -53.5 -22.5h-51c-20.667 0 -38.667 7.5 -54 22.5s-23 32.833 -23 53.5v49c0 20.667 7.66699 38.5 23 53.5s33.333 22.5 54 22.5zM86 871v-54h51
v54h-51z" />
    <glyph glyph-name="tilde" unicode="&#x2dc;" horiz-adv-x="403" 
d="M302 866c26 0 57.999 12.333 95.999 37v-126c-41.333 -17.333 -74.333 -26 -99 -26s-56.167 10.333 -94.5 31s-67.166 31 -86.499 31h-11c-28 0 -56 -12 -84 -36v124c44.667 18 76.334 27 95.001 27c25.333 0 57.166 -9.66699 95.499 -29s67.833 -30.333 88.5 -33z" />
    <glyph glyph-name="endash" unicode="&#x2013;" horiz-adv-x="708" 
d="M652 371v-153h-598v153h598z" />
    <glyph glyph-name="emdash" unicode="&#x2014;" horiz-adv-x="822" 
d="M756 371v-153h-702v153h702z" />
    <glyph glyph-name="quoteleft" unicode="&#x2018;" horiz-adv-x="240" 
d="M187 437l-153 -0.000976562v126c0 36.667 14.5 68.834 43.5 96.501s65.5 45.167 109.5 52.5v-275z" />
    <glyph glyph-name="quoteright" unicode="&#x2019;" horiz-adv-x="238" 
d="M54 706h153v-125c0 -36 -14.5 -68 -43.5 -96s-65.5 -45.667 -109.5 -53v274z" />
    <glyph glyph-name="quotedblleft" unicode="&#x201c;" horiz-adv-x="466" 
d="M198 437l-152.999 -0.000976562v126c0 36.667 14.667 68.834 44 96.501s65.666 45.167 108.999 52.5v-275zM413.001 437.999l-153 -0.000976562v126c0 36.667 14.5 68.834 43.5 96.501s65.5 45.167 109.5 52.5v-275z" />
    <glyph glyph-name="quotedblright" unicode="&#x201d;" horiz-adv-x="466" 
d="M268 706h154v-125c0 -36 -14.667 -68 -44 -96s-66 -45.667 -110 -53v274zM54 706h153v-125c0 -36 -14.5 -68 -43.5 -96s-65.5 -45.667 -109.5 -53v274z" />
    <glyph glyph-name="bullet" unicode="&#x2022;" horiz-adv-x="371" 
d="M174 428h21c44.667 0 67 -22 67 -66v-18c0 -43.333 -22.333 -65 -67 -65h-21c-44 0 -66 21.667 -66 65v18c0 44 22 66 66 66z" />
    <glyph glyph-name="ellipsis" unicode="&#x2026;" horiz-adv-x="574" 
d="M400 153v-153h-154v153h154zM591 153v-153h-153v153h153zM208 153v-153h-154v153h154z" />
    <glyph glyph-name="Euro" unicode="&#x20ac;" horiz-adv-x="799" 
d="M278 187v-34h461v-153h-469c-40 -0 -74.167 14.333 -102.5 43s-42.5 62.667 -42.5 102v42h-90v153h90v35h-90v153h90v47c0 40 14.167 74.167 42.5 102.5s62.5 42.5 102.5 42.5h469v-153h-461v-39h363v-153h-363v-35h363v-153h-363z" />
    <glyph glyph-name="minus" unicode="&#x2212;" horiz-adv-x="517" 
d="M476 372v-153h-417v153h417z" />
    <glyph glyph-name="uniE000" unicode="&#xe000;" horiz-adv-x="0" 
 />
    <glyph glyph-name="seven.alt" unicode="&#xe002;" horiz-adv-x="771" 
d="M46 720h707v-50l-551 -670h-156v51l422 516h-422v153z" />
    <glyph glyph-name="nine.alt" unicode="&#xe003;" horiz-adv-x="784" 
d="M158 719h416c40 0 74.167 -14.333 102.5 -43s42.5 -63 42.5 -103v-573h-153v280h-408c-40 0 -74.333 14.167 -103 42.5s-43 62.5 -43 102.5v148c0 40 14.333 74.333 43 103s63 43 103 43zM566 433v132h-400v-132h400z" />
    <glyph glyph-name="two.alt" unicode="&#xe005;" horiz-adv-x="815" 
d="M755 453l-113 -58l-439 -242h552v-153h-562c-34 0 -64.333 10.667 -91 32s-44 48.333 -52 81l-1 134l552 299v20h-398v-69h-154v77c0 40 14.333 74.167 43 102.5s63 42.5 103 42.5h416c36 0 67.5 -11.333 94.5 -34s43.5 -51 49.5 -85v-147z" />
    <glyph glyph-name="question.alt" unicode="&#xe006;" horiz-adv-x="667" 
d="M170 720h326c39.333 0 73.333 -14.167 102 -42.5s43 -62.5 43 -102.5v-166c0 -40 -14.333 -74.333 -43 -103s-62.667 -43 -102 -43h-164v-73h-154v82c0 40 14.333 74.167 43 102.5s62.667 42.5 102 42.5h165v150h-308v-98h-153v130c5.33301 34 21.5 62.667 48.5 86
s58.5 35 94.5 35zM332 0h-154v153h154v-153z" />
    <glyph glyph-name="four.alt" unicode="&#xe007;" horiz-adv-x="723" 
d="M593 331h96v-154h-96v-177h-153v177h-431v135l346 406h138v-83l-276 -304h223v135h153v-135z" />
    <glyph glyph-name="V.alt" unicode="&#xe00a;" horiz-adv-x="774" 
d="M54 720h153v-486l398 486h156v-64l-550 -656h-157v720z" />
    <glyph glyph-name="A.alt" unicode="&#xe00b;" horiz-adv-x="774" 
d="M0 0v50l549 670h157v-720h-154v174h-250l-146 -174h-156zM552 471l-122 -144h122v144z" />
    <glyph glyph-name="A.alt2" unicode="&#xe00c;" horiz-adv-x="774" 
d="M54 720h157l550 -670v-50h-157l-147 174h-250v-174h-153v720zM207 471v-144h122z" />
    <glyph glyph-name=".null" horiz-adv-x="0" 
 />
    <glyph glyph-name="nonmarkingreturn" horiz-adv-x="333" 
 />
    <glyph glyph-name="CR" horiz-adv-x="401" 
 />
    <glyph glyph-name="A.alt3" horiz-adv-x="827" 
d="M876 0h-178l-92 161h-362l-94 -161h-178l386 720h133zM424 512l-94 -195h189c-53.333 108 -85 173 -95 195z" />
    <glyph glyph-name="C.alt" horiz-adv-x="822" 
d="M773 599l-0.000976562 -134h-157v99h-409v-408h409v99h154v-133c-6 -34.667 -22.833 -63.667 -50.5 -87s-59.5 -35 -95.5 -35h-424c-41.333 -0 -76.333 14.333 -105 43s-43 63.667 -43 105v424c0 41.333 14.333 76.333 43 105s63.667 43 105 43h424
c35.333 0 66.833 -11.5 94.5 -34.5s45.834 -51.833 54.501 -86.5z" />
    <glyph glyph-name="I.alt" horiz-adv-x="818" 
d="M769 720v-156h-282v-408h282v-156h-720v156h282v408h-282v156h720z" />
    <glyph glyph-name="J.alt" horiz-adv-x="645" 
d="M3 0v156h444v564h157v-572c0 -40.667 -14.667 -75.5 -44 -104.5s-64.333 -43.5 -105 -43.5h-452z" />
    <glyph glyph-name="K.alt" horiz-adv-x="829" 
d="M209 720v-285h409v285h157v-275c0 -16 -5.16699 -32 -15.5 -48s-24.5 -29.333 -42.5 -40c38 -22.667 57 -52 57 -88v-269h-157v279h-408v-279h-155v720h155z" />
    <glyph glyph-name="M.alt" horiz-adv-x="1155" 
d="M929 720c40 0 74.5 -14.5 103.5 -43.5s43.5 -63.833 43.5 -104.5v-572h-156v564h-288v-564h-156v564h-267v-564h-155v720h875z" />
    <glyph glyph-name="N.alt" horiz-adv-x="827" 
d="M209 0h-155v720h572c40.667 0 75.5 -14.5 104.5 -43.5s43.5 -63.833 43.5 -104.5v-572h-157v564h-408v-564z" />
    <glyph glyph-name="O.alt" horiz-adv-x="824" 
d="M200 720h424c40.667 0 75.5 -14.5 104.5 -43.5s43.5 -63.833 43.5 -104.5v-424c0 -40.667 -14.5 -75.5 -43.5 -104.5s-63.833 -43.5 -104.5 -43.5h-424c-41.333 -0 -76.333 14.333 -105 43s-43 63.667 -43 105v424c0 41.333 14.333 76.333 43 105s63.667 43 105 43z
M207 564v-408h408v408h-408zM490 282h-156v156h156v-156z" />
    <glyph glyph-name="Q.alt" horiz-adv-x="868" 
d="M626 720c40.667 0 75.5 -14.5 104.5 -43.5s43.5 -63.833 43.5 -104.5v-424c0 -40.667 -14.5 -75.5 -43.5 -104.5s-63.833 -43.5 -104.5 -43.5h-134v-120h-157v120h-133c-41.333 -0 -76.333 14.333 -105 43s-43 63.667 -43 105v424c0 41.333 14.333 76.333 43 105
s63.667 43 105 43h424zM209 564v-408h408v408h-408z" />
    <glyph glyph-name="R.alt" horiz-adv-x="826" 
d="M774 571v-186c0 -30 -11.333 -53.333 -34 -70c22.667 -16 34 -39.333 34 -70v-245h-157v237h-408v-237h-155v721l572 -1c40.667 0 75.5 -14.667 104.5 -44s43.5 -64.333 43.5 -105zM209 564v-171h408v171h-408z" />
    <glyph glyph-name="S.alt" horiz-adv-x="812" 
d="M766 564h-564v-126h416c40.667 0 75.5 -14.5 104.5 -43.5s43.5 -63.833 43.5 -104.5v-142c0 -40.667 -14.5 -75.5 -43.5 -104.5s-63.833 -43.5 -104.5 -43.5h-572v156h564v126h-416c-41.333 0 -76.333 14.333 -105 43s-43 63.667 -43 105v142
c0 41.333 14.333 76.333 43 105s63.667 43 105 43h572v-156z" />
    <glyph glyph-name="V.alt2" horiz-adv-x="774" 
d="M563 240v480h157v-720h-159l-561 668v52h160z" />
    <glyph glyph-name="V.alt3" horiz-adv-x="827" 
d="M616 720h157v-720h-572c-40.667 -0 -75.5 14.333 -104.5 43s-43.5 63.667 -43.5 105v572h155v-564h408v564z" />
    <glyph glyph-name="W.alt" horiz-adv-x="1149" 
d="M988 720h161v-52l-561 -668h-159v225l-189 -225h-160v720h156v-483l134 160h-1l271 323h160v-53l-215 -254v-176l102 122z" />
    <glyph glyph-name="W.alt2" horiz-adv-x="1131" 
d="M159 720l404 -480v173l-215 254v53h159l405 -482v482h156v-720h-159l-190 225v-225h-159l-561 668v52h160z" />
    <glyph glyph-name="W.alt3" horiz-adv-x="1028" 
d="M506 349l-293 -349h-159v720h155v-481l298 352l295 -351v480h156v-720h-159z" />
    <glyph glyph-name="W.alt4" horiz-adv-x="1155" 
d="M201 0c-40.667 0 -75.5 14.333 -104.5 43s-43.5 63.667 -43.5 105v572h155v-564h289v564h156v-564h266v564h156v-720h-874z" />
    <glyph glyph-name="X.alt" horiz-adv-x="829" 
d="M618 720l157 0.000976562v-275c0 -36.667 -18.667 -66 -56 -88c36.667 -20.667 55 -50 55 -88v-269h-157v279h-407v-279h-155v269c0 36 18 65.333 54 88c-36.667 25.333 -55 54.666 -55 87.999v275h155v-285h409v285z" />
    <glyph glyph-name="Y.alt" horiz-adv-x="824" 
d="M614 720h157v-572c0 -40.667 -14.5 -75.5 -43.5 -104.5s-63.833 -43.5 -104.5 -43.5h-572v156h563v126h-415c-40.667 0 -75.5 14.333 -104.5 43s-43.5 63.667 -43.5 105v290h155v-282h408v282z" />
    <glyph glyph-name="Z.alt" horiz-adv-x="818" 
d="M197 438h415v126h-563v156h572c40.667 0 75.5 -14.5 104.5 -43.5s43.5 -63.833 43.5 -104.5v-142c0 -40.667 -14.5 -75.5 -43.5 -104.5s-63.833 -43.5 -104.5 -43.5h-417v-126h565v-156h-572c-40.667 -0 -75.5 14.333 -104.5 43s-43.5 63.667 -43.5 105v142
c0 41.333 14.5 76.333 43.5 105s63.833 43 104.5 43z" />
    <glyph glyph-name="a.alt" horiz-adv-x="693" 
d="M494 580c40 0 74.167 -14.333 102.5 -43s42.5 -62.667 42.5 -102v-435h-443c-39.333 -0 -73.333 14.333 -102 43s-43 62.667 -43 102v290c0 39.333 14.333 73.333 43 102s62.667 43 102 43h298zM204 153h282v274h-282v-274z" />
    <glyph glyph-name="a.sc" horiz-adv-x="725" 
d="M199 580h325c40 0 74.167 -14.333 102.5 -43s42.5 -62.667 42.5 -102v-435h-153v138h-310v-138h-153v435c0 39.333 14.333 73.333 43 102s63 43 103 43zM206 291h310v136h-310v-136z" />
    <glyph glyph-name="b.sc" horiz-adv-x="700" 
d="M624 435v-79c0 -18.667 -1.66699 -33.667 -5 -45c22 -26 33 -56.667 33 -92v-74c0 -39.333 -14.333 -73.333 -43 -102s-62.667 -43 -102 -43h-453v581h425c40 0 74.167 -14.333 102.5 -43s42.5 -63 42.5 -103zM207 221v-68h292v68h-292zM207 438v-74h264v74h-264z" />
    <glyph glyph-name="c.sc" horiz-adv-x="693" 
d="M638 428h-434v-275h434v-153h-442c-40 -0 -74.167 14.333 -102.5 43s-42.5 62.667 -42.5 102v290c0 40 14.167 74.333 42.5 103s62.5 43 102.5 43h442v-153z" />
    <glyph glyph-name="d.sc" horiz-adv-x="705" 
d="M54 581h453c39.333 0 73.333 -14.333 102 -43s43 -63 43 -103v-290c0 -39.333 -14.333 -73.333 -43 -102s-62.667 -43 -102 -43h-453v581zM207 428v-275h292v275h-292z" />
    <glyph glyph-name="e.sc" horiz-adv-x="638" 
d="M589 581v-153h-382v-61h285v-154h-285v-60h382v-153h-535v581h535z" />
    <glyph glyph-name="f.sc" horiz-adv-x="591" 
d="M54 581h535v-153h-382v-61h285v-154h-285v-213h-153v581z" />
    <glyph glyph-name="g.sc" horiz-adv-x="690" 
d="M639 435v-33h-153v26h-282v-275h282v43h-144v143h297v-194c0 -39.333 -14.167 -73.333 -42.5 -102s-62.5 -43 -102.5 -43h-298c-39.333 -0 -73.333 14.333 -102 43s-43 62.667 -43 102v290c0 40 14.333 74.333 43 103s62.667 43 102 43h298
c40 0 74.167 -14.333 102.5 -43s42.5 -63 42.5 -103z" />
    <glyph glyph-name="h.sc" horiz-adv-x="715" 
d="M505 580h154v-580h-154v213h-298v-213h-153v580h153v-213h298v213z" />
    <glyph glyph-name="i.sc" horiz-adv-x="214" 
d="M54 0v580h153v-580h-153z" />
    <glyph glyph-name="j.sc" horiz-adv-x="657" 
d="M158 227v-74h292v427h153v-435c0 -39.333 -14.167 -73.333 -42.5 -102s-62.5 -43 -102.5 -43h-307c-40 -0 -74.333 14.333 -103 43s-43 62.667 -43 102v82h153z" />
    <glyph glyph-name="k.alt" horiz-adv-x="669" 
d="M642 580v-221.999c0 -5.33301 -1 -11.5 -3 -18.5s-3.83301 -12.167 -5.5 -15.5s-5 -9.5 -10 -18.5s-7.83301 -14.167 -8.5 -15.5c18 -34.667 27 -57.334 27 -68.001v-222h-153v213h-282v-213h-153v752h153v-385h282v213h153z" />
    <glyph glyph-name="k.sc" horiz-adv-x="682" 
d="M482 580h154v-52l-216 -238l216 -238v-52h-154l-197 213h-78v-213h-153v580h153v-213h78z" />
    <glyph glyph-name="l.sc" horiz-adv-x="659" 
d="M54 0v580h153v-427h445v-153h-598z" />
    <glyph glyph-name="m.sc" horiz-adv-x="824" 
d="M406 304l192 277h160v-581h-154v341l-198 -281l-199 281v-341h-153v581h159z" />
    <glyph glyph-name="n.sc" horiz-adv-x="708" 
d="M499 238v342h153v-580h-159l-286 344v-344h-153v580h158z" />
    <glyph glyph-name="o.sc" horiz-adv-x="692" 
d="M196 580h298c40 0 74.167 -14.333 102.5 -43s42.5 -62.667 42.5 -102v-290c0 -39.333 -14.167 -73.333 -42.5 -102s-62.5 -43 -102.5 -43h-298c-39.333 -0 -73.333 14.333 -102 43s-43 62.667 -43 102v290c0 39.333 14.333 73.333 43 102s62.667 43 102 43zM204 427v-274
h282v274h-282z" />
    <glyph glyph-name="p.sc" horiz-adv-x="660" 
d="M54 580h443c40 0 74.167 -14.333 102.5 -43s42.5 -62.667 42.5 -102v-112c0 -39.333 -14.167 -73.333 -42.5 -102s-62.5 -43 -102.5 -43l-290 -1c2 0 3 -2 3 -6c-1.33301 0 -2.33301 0.333008 -3 1v-172h-153v580zM207 427v-95h282v95h-282z" />
    <glyph glyph-name="q.sc" horiz-adv-x="770" 
d="M640 435v-282h82v-153h-525c-39.333 -0 -73.333 14.333 -102 43s-43 62.667 -43 102v290c0 39.333 14.333 73.333 43 102s62.667 43 102 43h298c40 0 74.167 -14.167 102.5 -42.5s42.5 -62.5 42.5 -102.5zM205 427v-274h282v274h-282z" />
    <glyph glyph-name="r.sc" horiz-adv-x="700" 
d="M643 435l0.000976562 -112c0 -37.333 -12.833 -70 -38.5 -98s-56.834 -43.667 -93.501 -47l141 -124v-54h-155l-195 178h-95v-178h-153v580h443c40 0 74.333 -14.333 103 -43s43 -62.667 43 -102zM207.001 427v-95h282v95h-282z" />
    <glyph glyph-name="s.sc" horiz-adv-x="687" 
d="M638 435v-28h-154v20h-282v-60h290c40 0 74.333 -14.333 103 -43s43 -62.667 43 -102v-77c0 -39.333 -14.333 -73.333 -43 -102s-63 -43 -103 -43h-298c-39.333 -0 -73.333 14.333 -102 43s-43 62.667 -43 102v28h153v-20h282v60h-290c-39.333 0 -73.333 14.333 -102 43
s-43 62.667 -43 102v77c0 39.333 14.333 73.333 43 102s62.667 43 102 43h298c40 0 74.333 -14.333 103 -43s43 -62.667 43 -102z" />
    <glyph glyph-name="t.sc" horiz-adv-x="644" 
d="M22 580h598v-153h-223v-427h-154v427h-221v153z" />
    <glyph glyph-name="u.sc" horiz-adv-x="695" 
d="M206 580v-427h282v427h153v-435c0 -39.333 -14.167 -73.333 -42.5 -102s-62.5 -43 -102.5 -43h-298c-40 -0 -74.167 14.333 -102.5 43s-42.5 62.667 -42.5 102v435h153z" />
    <glyph glyph-name="v.alt" horiz-adv-x="697" 
d="M488 580h153v-580h-443c-40 -0 -74.167 14.333 -102.5 43s-42.5 62.667 -42.5 102v435h153v-427h282v427z" />
    <glyph glyph-name="v.sc" horiz-adv-x="801" 
d="M410 194l214 386h175l-323 -580h-131l-324 580h175z" />
    <glyph glyph-name="w.alt" horiz-adv-x="978" 
d="M199 0c-40 0 -74.333 14.333 -103 43s-43 62.667 -43 102v435h152v-427h192v427h154v-427h192v427h153v-580h-697z" />
    <glyph glyph-name="w.sc" horiz-adv-x="1078" 
d="M864 580h163l-223 -580h-116l-157 339l-67 -151l-83 -188h-115l-232 580h162l129 -304l135 304h140l144 -305z" />
    <glyph glyph-name="x.alt" horiz-adv-x="698" 
d="M642 580v-222c0 -5.33301 -1 -11.5 -3 -18.5s-3.83301 -12.167 -5.5 -15.5s-5 -9.5 -10 -18.5s-7.83301 -14.167 -8.5 -15.5c18 -34.667 27 -57.334 27 -68.001v-222h-153v213h-282v-213h-153v222c0 10.667 9 33.334 27 68.001c-0.666992 1.33301 -3.5 6.5 -8.5 15.5
s-8.33301 15.167 -10 18.5s-3.5 8.5 -5.5 15.5s-3 13.167 -3 18.5v222h153v-213h282v213h153z" />
    <glyph glyph-name="x.sc" horiz-adv-x="692" 
d="M487 580h157v-50l-200 -234l200 -246v-50h-157l-142 175l-142 -175h-157v50l198 246l-142 166l-56 68v50h157l142 -168z" />
    <glyph glyph-name="y.sc" horiz-adv-x="688" 
d="M532 580h183l-272 -380v-200h-153v200l-272 380h181l168 -216z" />
    <glyph glyph-name="z.alt" horiz-adv-x="692" 
d="M494 213h-290v-60h435v-153h-443c-39.333 -0 -73.333 14.333 -102 43s-43 62.667 -43 102v77c0 39.333 14.333 73.333 43 102s62.667 43 102 43h290v60h-435v153h443c40 0 74.167 -14.333 102.5 -43s42.5 -62.667 42.5 -102v-77c0 -39.333 -14.167 -73.333 -42.5 -102
s-62.5 -43 -102.5 -43z" />
    <glyph glyph-name="z.sc" horiz-adv-x="698" 
d="M54 427v153h588v-157l-349 -270h349v-153h-588v157l349 270h-349z" />
    </font>
</defs>
</svg>
